# xmcd
#
# Track frame offsets: 
#        182
#        37307
#        65320
#        88260
#        112457
#        150782
#        187757
#        207932
#
# Disc length: 3183 seconds
#
# Revision: 4
# Processed by: cddbd v1.5.2PL0 Copyright (c) Steve Scherf et al.
# Submitted via: ExactAudioCopy v1.0b3
#
DISCID=6a0c6d08
DTITLE=Haydn, Franz Joseph - Haydn: Symphonies No. 100 and 104 - Concert
DTITLE=gebouw Orchestra, Amsterdam, Colin Davis
DYEAR=1977
DGENRE=Symphony
TTITLE0=Symphony No. 100 in G - I. Adagio - Allegro
TTITLE1=Symphony No. 100 in G - II. Allegretto
TTITLE2=Symphony No. 100 in G - III. Minuet (Moderato)
TTITLE3=Symphony No. 100 in G - IV. Finale (Presto)
TTITLE4=Symphony No. 104 in D - I. Adagio - Allegro
TTITLE5=Symphony No. 104 in D - II. Andante
TTITLE6=Symphony No. 104 in D - III. Menuet (Allegro)
TTITLE7=Symphony No. 104 in D - IV. Finale (Spiritoso)
EXTD=
EXTT0=
EXTT1=
EXTT2=
EXTT3=
EXTT4=
EXTT5=
EXTT6=
EXTT7=
PLAYORDER=
